<svg height="512" viewBox="0 0 508.18 508.18" width="512" xmlns="http://www.w3.org/2000/svg"><path d="M217.179 464.656l36.785-10 36.785 10v3.069c0 20.316-16.469 36.785-36.785 36.785-20.316 0-36.785-16.469-36.785-36.785z" fill="#60b7ff"/><path d="M281.06 464.656h-64.192c-7.242 0-13.113-5.871-13.113-13.113v-87.305l50.209-10 40.209 10v87.305c.001 7.242-5.87 13.113-13.113 13.113z" fill="#c4e2ff"/><path d="M277.174 360.01v91.533c0 7.242-5.871 13.113-13.113 13.113h27c7.242 0 13.114-5.871 13.114-13.113v-87.305z" fill="#8ac9fe"/><path d="M373.847 199.78c0-71.112-47.205-128.864-118.108-129.747-71.59-.892-131.407 58.152-131.407 129.747 0 38.383 16.667 72.87 43.158 96.625 19.202 17.22 31.72 40.66 35.975 66.098l.29 1.734h100.419l.245-1.467c4.329-25.882 7.533-49.323 26.947-66.979 26.098-23.732 42.481-57.957 42.481-96.011z" fill="#fed402"/><path d="M255.739 70.033a127.895 127.895 0 00-15.019.706c65.255 6.813 116.127 61.982 116.127 129.041 0 38.055-16.384 72.279-42.481 96.012-19.414 17.656-32.618 41.096-36.947 66.979l-.245 1.467h27l.245-1.467c4.329-25.882 17.533-49.323 36.947-66.979 26.097-23.733 42.481-57.957 42.481-96.012 0-71.113-57.205-128.864-128.108-129.747z" fill="#fac600"/><path d="M341.739 210.67v-21.78a5 5 0 00-5-5h-20.544a63.706 63.706 0 00-6.96-16.783l14.533-14.533a5 5 0 000-7.071l-15.4-15.4a5 5 0 00-7.071 0l-14.533 14.533a63.742 63.742 0 00-16.783-6.961v-20.544a5 5 0 00-5-5H243.2a5 5 0 00-5 5v20.544a63.706 63.706 0 00-16.783 6.96l-14.533-14.533a5 5 0 00-7.071 0l-15.4 15.4a5 5 0 000 7.071l14.533 14.533a63.706 63.706 0 00-6.96 16.783h-20.544a5 5 0 00-5 5v21.78a5 5 0 005 5h20.544a63.706 63.706 0 006.96 16.783l-14.533 14.533a5 5 0 000 7.071l15.4 15.4a5 5 0 007.071 0l14.533-14.533a63.706 63.706 0 0016.783 6.96v20.544a5 5 0 005 5h21.78a5 5 0 005-5v-20.544a63.706 63.706 0 0016.783-6.96l14.533 14.533a5 5 0 007.071 0l15.4-15.4a5 5 0 000-7.071l-14.533-14.533a63.742 63.742 0 006.961-16.783h20.544c2.761.001 5-2.238 5-4.999zm-87.649 20.079c-17.104 0-30.969-13.865-30.969-30.969s13.865-30.969 30.969-30.969 30.969 13.865 30.969 30.969-13.866 30.969-30.969 30.969z" fill="#efedef"/><path d="M254.09 48.662a7.5 7.5 0 007.5-7.5V7.5a7.5 7.5 0 00-15 0v33.662a7.5 7.5 0 007.5 7.5zm130.651 9.849l-23.803 23.803a7.5 7.5 0 005.304 12.803 7.478 7.478 0 005.304-2.197l23.803-23.803a7.5 7.5 0 000-10.606 7.503 7.503 0 00-10.608 0zM136.634 306.618l-23.803 23.803a7.5 7.5 0 005.303 12.803 7.474 7.474 0 005.303-2.197l23.803-23.803a7.5 7.5 0 000-10.606 7.5 7.5 0 00-10.606 0zm0-213.698c1.464 1.464 3.384 2.197 5.303 2.197s3.839-.732 5.303-2.197a7.5 7.5 0 000-10.606l-23.803-23.803a7.5 7.5 0 00-10.606 0 7.5 7.5 0 000 10.606zm234.912 213.698a7.5 7.5 0 00-10.607 10.606l23.803 23.803c1.465 1.464 3.385 2.197 5.304 2.197s3.839-.732 5.304-2.197a7.5 7.5 0 000-10.606zM95.483 192.269H61.82a7.5 7.5 0 000 15h33.662a7.5 7.5 0 00.001-15zm350.876 0h-33.662c-4.143 0-7.5 3.358-7.5 7.5s3.357 7.5 7.5 7.5h33.662c4.143 0 7.5-3.358 7.5-7.5s-3.357-7.5-7.5-7.5z"/><path d="M314.384 405.2c4.143 0 7.5-3.358 7.5-7.5s-3.357-7.5-7.5-7.5h-2.71v-25.35l.143-.853a106.31 106.31 0 018.171-26.633 7.5 7.5 0 00-13.644-6.232 121.585 121.585 0 00-8.406 25.596h-87.929c-5.261-25.567-18.462-48.836-37.51-65.917-22.502-20.178-36.687-47.757-39.941-77.655a7.5 7.5 0 10-14.912 1.623c3.655 33.58 19.579 64.548 44.839 87.199 17.644 15.822 29.571 37.753 33.585 61.751l.188 1.122V390.2h-2.46a7.5 7.5 0 000 15h2.46v18.473h-2.46a7.5 7.5 0 000 15h2.46v12.86c0 8.876 5.65 16.437 13.533 19.334 1.091 15.654 10.266 29.46 24.494 36.529a7.501 7.501 0 0010.054-3.38 7.5 7.5 0 00-3.38-10.054c-8.694-4.32-14.528-12.443-15.939-21.816h57.894c-1.41 9.373-7.244 17.496-15.938 21.815a7.5 7.5 0 106.674 13.433c14.228-7.069 23.402-20.875 24.493-36.528 7.884-2.897 13.533-10.458 13.533-19.334v-12.86h2.71c4.143 0 7.5-3.358 7.5-7.5s-3.357-7.5-7.5-7.5h-2.71V405.2zm-103.129-33.473h85.418V390.2h-85.418zm85.419 79.805a5.62 5.62 0 01-5.613 5.613h-74.192a5.62 5.62 0 01-5.613-5.613v-12.86h85.418zm0-27.86h-85.418V405.2h85.418zM254.09 238.238c21.212 0 38.469-17.257 38.469-38.469S275.301 161.3 254.09 161.3c-21.212 0-38.469 17.257-38.469 38.469s17.257 38.469 38.469 38.469zm0-61.938c12.94 0 23.469 10.528 23.469 23.469s-10.528 23.469-23.469 23.469-23.469-10.528-23.469-23.469S241.149 176.3 254.09 176.3z"/><path d="M171.441 176.379c-6.893 0-12.5 5.607-12.5 12.5v21.78c0 6.893 5.607 12.5 12.5 12.5h14.97a71.248 71.248 0 003.287 7.924l-10.589 10.589c-4.874 4.874-4.874 12.804 0 17.677l15.4 15.4c4.874 4.874 12.804 4.874 17.678 0l10.589-10.588a71.248 71.248 0 007.924 3.287v14.97c0 6.893 5.607 12.5 12.5 12.5h21.779c6.893 0 12.5-5.607 12.5-12.5v-14.97a71.248 71.248 0 007.924-3.287l10.589 10.588c2.36 2.361 5.5 3.662 8.839 3.662s6.478-1.3 8.84-3.661l15.4-15.401c4.872-4.874 4.872-12.803 0-17.677l-10.589-10.589a70.862 70.862 0 003.286-7.924h14.971c6.893 0 12.5-5.607 12.5-12.5v-21.78c0-6.893-5.607-12.5-12.5-12.5h-14.971a71.13 71.13 0 00-3.286-7.924l10.589-10.589c4.872-4.874 4.872-12.803 0-17.677l-15.401-15.401c-2.361-2.36-5.5-3.66-8.839-3.66s-6.478 1.3-8.839 3.661l-10.589 10.589a71.058 71.058 0 00-7.924-3.287v-14.97c0-6.893-5.607-12.5-12.5-12.5H243.2c-6.893 0-12.5 5.607-12.5 12.5v14.97a71.058 71.058 0 00-7.924 3.287l-10.589-10.589c-4.874-4.874-12.804-4.874-17.678 0l-15.4 15.4c-4.874 4.874-4.874 12.804 0 17.678l10.589 10.589a71.254 71.254 0 00-3.288 7.924h-14.969zm32.808-14.586l-12.766-12.765 11.865-11.865 12.765 12.766a7.5 7.5 0 009.133 1.145 56.21 56.21 0 0114.808-6.142 7.5 7.5 0 005.646-7.268V119.62h16.779v18.044a7.5 7.5 0 005.647 7.268 56.19 56.19 0 0114.808 6.142 7.5 7.5 0 009.133-1.145l12.765-12.766 11.865 11.865-12.766 12.766a7.5 7.5 0 00-1.145 9.133 56.194 56.194 0 016.141 14.806 7.5 7.5 0 007.268 5.647h18.045v16.78h-18.045a7.501 7.501 0 00-7.268 5.647 56.18 56.18 0 01-6.141 14.806 7.5 7.5 0 001.145 9.133l12.766 12.766-11.865 11.865-12.765-12.765a7.498 7.498 0 00-9.133-1.146 56.215 56.215 0 01-14.808 6.142 7.5 7.5 0 00-5.647 7.267v18.044H245.7v-18.044a7.5 7.5 0 00-5.646-7.267 56.262 56.262 0 01-14.808-6.142 7.5 7.5 0 00-9.133 1.146l-12.765 12.765-11.865-11.865 12.765-12.766a7.5 7.5 0 001.146-9.133 56.23 56.23 0 01-6.143-14.807 7.5 7.5 0 00-7.267-5.646H173.94v-16.78h18.044a7.5 7.5 0 007.267-5.646 56.232 56.232 0 016.143-14.808 7.5 7.5 0 00-1.145-9.133z"/><path d="M351.717 103.288c-25.535-25.835-59.587-40.313-95.884-40.765-33.638-.404-66.256 11.745-91.895 34.25-25.407 22.302-41.742 52.735-45.996 85.693a7.5 7.5 0 0014.877 1.919c3.786-29.336 18.352-56.447 41.014-76.339 22.849-20.057 51.937-30.914 81.812-30.525 32.328.403 62.658 13.298 85.402 36.31 22.764 23.032 35.3 53.552 35.3 85.938 0 34.358-14.59 67.331-40.027 90.463a129.124 129.124 0 00-11.074 11.395 7.5 7.5 0 00.808 10.576 7.468 7.468 0 004.88 1.809 7.481 7.481 0 005.695-2.616 114.117 114.117 0 019.783-10.065c28.558-25.97 44.936-62.987 44.936-101.561-.001-36.36-14.075-70.624-39.631-96.482z"/></svg>