<svg height="512" width="512" xmlns="http://www.w3.org/2000/svg"><path d="M493.729 492.261l-160.5-482C331.221 4.227 325.524 0 318.997 0H193.003c-.1.033-11.151-.525-14.736 10.274l-160 482A15 15 0 0032.503 512h83.249a74.911 74.911 0 0071.158-51.302l68.934-207.743 69.254 207.763A74.903 74.903 0 00396.248 512h83.249a15 15 0 0014.232-19.739zM158.442 451.23a44.942 44.942 0 01-42.69 30.77H53.287L203.329 30h94.887zM396.248 482a44.941 44.941 0 01-42.69-30.77l-81.939-245.819 47.403-142.858L458.692 482z"/></svg>