<svg xmlns="http://www.w3.org/2000/svg" viewBox="0 0 512.003 512.003"><path d="M443.734 80.336L330.86 70.437a863.615 863.615 0 00-149.717 0L68.268 80.336C29.566 83.46-.191 115.877.001 154.704v202.667c-.204 38.835 29.557 71.265 68.267 74.389l112.939 9.813c24.832 2.133 49.835 3.243 74.859 3.243 25.024 0 50.027-1.067 74.859-3.243l112.939-9.813c38.659-3.187 68.348-35.6 68.139-74.389V154.704c.191-38.827-29.567-71.245-68.269-74.368z" fill="#e53935"/><path d="M357.782 247.077l-149.333-96c-4.951-3.193-11.552-1.768-14.745 3.183a10.666 10.666 0 00-1.703 5.777v192c.002 5.891 4.78 10.665 10.671 10.663a10.666 10.666 0 005.777-1.703l149.333-96c4.954-3.187 6.387-9.787 3.2-14.742a10.673 10.673 0 00-3.2-3.2v.022z" fill="#fafafa"/><path d="M256.001 444.816a866.16 866.16 0 01-74.837-3.243l-112.896-9.835C29.558 428.614-.203 396.184.001 357.349V154.683c-.182-38.819 29.573-71.224 68.267-74.347l112.896-9.899a863.131 863.131 0 01149.675 0l112.96 9.813c38.717 3.158 68.454 35.629 68.203 74.475v202.667c.204 38.835-29.557 71.265-68.267 74.389l-112.96 9.813c-24.747 2.177-49.771 3.222-74.774 3.222zm0-356.267a848.884 848.884 0 00-72.981 3.157L69.953 101.52c-27.614 2.317-48.794 25.495-48.619 53.205v202.667c-.116 27.7 21.097 50.827 48.704 53.099l112.96 9.813a845.458 845.458 0 00145.984 0l113.067-9.813c27.589-2.315 48.76-25.456 48.619-53.141V154.683c.116-27.7-21.097-50.827-48.704-53.099l-112.96-9.813a849.281 849.281 0 00-73.003-3.179v-.043z"/><path d="M202.668 362.704c-5.891 0-10.667-4.776-10.667-10.667v-192c-.01-5.891 4.758-10.674 10.649-10.684 2.057-.003 4.07.588 5.799 1.703l149.333 96c4.96 3.178 6.405 9.776 3.227 14.736a10.658 10.658 0 01-3.227 3.227l-149.333 96a10.67 10.67 0 01-5.781 1.685zm10.666-183.125v152.917l118.933-76.459-118.933-76.458z"/></svg>